<svg width="44" height="42" viewBox="0 0 44 42" fill="#ffffff" xmlns="http://www.w3.org/2000/svg">
<g clip-path="url(#clip0)">
<path d="M12.3724 35.3792C12.0424 35.3792 11.7125 35.259 11.4609 35.0187C7.0345 30.7935 7.0345 23.9187 11.4609 19.6935C11.9642 19.2131 12.7805 19.2131 13.2839 19.6935C13.7873 20.174 13.7873 20.9531 13.2839 21.4336C9.86267 24.6993 9.86267 30.013 13.2839 33.2786C13.7873 33.7591 13.7873 34.5382 13.2839 35.0187C13.0322 35.259 12.7023 35.3792 12.3724 35.3792V35.3792Z" fill="white"/>
<path d="M17.2081 31.5835C16.8782 31.5835 16.5483 31.4634 16.2967 31.2231C14.0628 29.0908 14.0628 25.6213 16.2967 23.489C16.8 23.0086 17.6162 23.0086 18.1196 23.489C18.623 23.9695 18.623 24.7486 18.1196 25.2292C16.891 26.4019 16.891 28.3103 18.1196 29.483C18.623 29.9634 18.623 30.7426 18.1196 31.2231C17.8678 31.4635 17.538 31.5835 17.2081 31.5835V31.5835Z" fill="white"/>
<path d="M7.52366 39.0714C7.19375 39.0714 6.86384 38.9512 6.61222 38.711C0.0530285 32.4499 0.0530285 22.2624 6.61222 16.0012C7.11563 15.5208 7.93186 15.5208 8.43519 16.0012C8.9386 16.4817 8.9386 17.2608 8.43519 17.7413C2.8812 23.043 2.8812 31.6693 8.43519 36.9709C8.9386 37.4513 8.9386 38.2304 8.43519 38.711C8.18348 38.9512 7.85357 39.0714 7.52366 39.0714Z" fill="white"/>
<path d="M41.0186 42C40.5275 42 40.0584 41.7307 39.8431 41.2757L38.1051 37.6023C37.8354 37.0323 37.2357 36.6703 36.5832 36.682C34.2945 36.7201 31.4836 36.7605 30.0492 36.7334C28.506 36.7043 27.6066 36.0789 27.1238 35.5594C26.4549 34.8397 26.148 33.8564 26.2596 32.7909C26.3242 32.1734 26.1494 31.9629 25.8013 31.544C25.538 31.2271 25.2102 30.8328 25.0521 30.2712C24.8122 29.4187 25.1627 28.4895 25.9451 27.9039C25.9801 27.8778 26.0165 27.8533 26.0541 27.8307L28.6443 26.2755L24.7732 24.8736C24.7402 24.8616 24.7077 24.8483 24.6758 24.8339C23.7511 24.4132 23.2393 23.4485 23.431 22.4881L23.9318 19.9789C23.9828 19.7231 23.9239 19.4654 23.7657 19.2532C23.6075 19.0409 23.3718 18.9031 23.1018 18.8652L20.5534 18.5077C19.8481 18.4086 19.2436 17.983 18.9361 17.3693C18.6286 16.7558 18.661 16.0394 19.0227 15.4534L23.8799 7.58354C24.6188 6.38647 24.9103 4.97005 24.7008 3.59514L24.3675 1.40772C24.265 0.73524 24.753 0.110744 25.4576 0.0129636C26.1622 -0.0848165 26.8163 0.381034 26.9187 1.05352L27.2521 3.24094C27.5458 5.16865 27.1371 7.15452 26.1012 8.83278L21.5765 16.1639L23.4769 16.4306C24.4487 16.5671 25.2973 17.063 25.8665 17.8268C26.4358 18.5907 26.648 19.5185 26.4643 20.4394L26.015 22.6912L30.3656 24.2668C31.1326 24.5445 31.6599 25.2012 31.7412 25.9806C31.8227 26.7599 31.4419 27.5031 30.7474 27.9202L27.6377 29.7873C27.6919 29.8592 27.7604 29.9416 27.8211 30.0146C28.2597 30.5423 28.9937 31.4255 28.825 33.0357C28.8022 33.2525 28.8016 33.6565 29.0524 33.9263C29.308 34.2013 29.7632 34.2665 30.1001 34.273C31.4917 34.2992 34.2717 34.2593 36.538 34.2214C38.2233 34.1963 39.7608 35.1228 40.4547 36.5894L42.1927 40.2628C42.4857 40.8821 42.1972 41.6109 41.5484 41.8907C41.3763 41.9648 41.196 42 41.0186 42V42ZM29.4511 26.5676H29.452H29.4511Z" fill="white"/>
</g>
<defs>
<clipPath id="clip0">
<rect width="44" height="42" fill="white"/>
</clipPath>
</defs>
</svg>
